PathFileType	4	(X/Y/Z)	../motion_lab\static\Static03\task.trc
DataRate	CameraRate	NumFrames	NumMarkers	Units	OrigDataRate	OrigDataStartFrame	OrigNumFrames
200.000000	200.000000	4	40	mm	200.000000	0	445
Frame#	Time	C7			RBAK			CLAV			STRN			T10			RASI			RPSI			LPSI			LASI			PE01			PE02			PE03			RTH1			RTH2			RTH3			RKNE			RMKNE			RTB1			RTB2			RTB3			RANK			RMMA			RHEE			RD5M			RTOE			LTH1			LTH2			LTH3			LKNE			LMKNE			LTB1			LTB2			LTB3			LANK			LMMA			LHEE			LTOE			LD5M			LGT			RGT			
		X1	Y1	Z1	X2	Y2	Z2	X3	Y3	Z3	X4	Y4	Z4	X5	Y5	Z5	X6	Y6	Z6	X7	Y7	Z7	X8	Y8	Z8	X9	Y9	Z9	X10	Y10	Z10	X11	Y11	Z11	X12	Y12	Z12	X13	Y13	Z13	X14	Y14	Z14	X15	Y15	Z15	X16	Y16	Z16	X17	Y17	Z17	X18	Y18	Z18	X19	Y19	Z19	X20	Y20	Z20	X21	Y21	Z21	X22	Y22	Z22	X23	Y23	Z23	X24	Y24	Z24	X25	Y25	Z25	X26	Y26	Z26	X27	Y27	Z27	X28	Y28	Z28	X29	Y29	Z29	X30	Y30	Z30	X31	Y31	Z31	X32	Y32	Z32	X33	Y33	Z33	X34	Y34	Z34	X35	Y35	Z35	X36	Y36	Z36	X37	Y37	Z37	X38	Y38	Z38	X39	Y39	Z39	X40	Y40	Z40	

1	0	-10.12200260162354	1354.702880859375	291.0638122558595	72.55578613281253	1257.514282226563	332.6266174316407	-6.917879104614261	1291.760620117188	152.663558959961	-0.9400726556777959	1112.677368164063	61.97753906250003	4.289245605468752	1055.31640625	278.7872619628907	117.6533432006837	885.7667846679692	104.328956604004	55.96579360961917	921.702758789063	301.4836425781251	-29.44740295410158	918.4365234375005	298.7181091308595	-105.240463256836	884.8148803710942	95.67012023925784	10.96405124664307	955.523071289063	288.6399841308595	35.30696868896486	898.649047851563	314.2548217773439	-15.61131095886231	896.9599609375005	310.5806274414064	164.7447204589844	598.3786621093752	211.2542419433595	153.8895721435547	519.5992431640627	203.7501525878907	158.8244628906251	571.078552246094	169.3837890625001	143.8586120605469	453.0417480468752	209.0411071777345	32.23069763183595	446.4950256347659	193.7192993164064	161.4620666503907	299.3263549804689	226.6666564941407	167.1164245605469	263.1738891601564	276.4151000976564	163.2116394042969	222.8279876708986	246.3988494873048	152.9074859619141	59.39693450927737	300.1929626464845	79.10018157958987	76.74961090087893	267.3230590820314	103.1612091064454	27.93032836914064	333.8839111328126	200.2754974365236	14.00518608093262	199.6405029296876	155.1478729248047	30.3853168487549	151.4565429687501	-167.8671569824219	622.643493652344	187.0590972900391	-159.0105438232422	570.641540527344	217.3627777099611	-164.9232330322266	597.5303344726565	143.4779663085938	-148.9394836425782	444.974792480469	190.3875122070313	-46.54560470581056	437.7470703125002	178.4166717529297	-183.9532623291016	299.8531188964845	267.238739013672	-184.2742309570313	220.0659790039064	274.7753295898439	-183.6078491210938	246.7878570556642	233.287567138672	-186.3963165283204	72.58856964111331	252.9132385253907	-106.051856994629	75.07469177246097	238.9946594238282	-148.5912475585938	35.5337371826172	304.0848083496095	-177.016830444336	29.58393478393556	111.4735336303712	-223.6622619628907	18.06243515014649	162.1258850097657	-194.4916229248048	788.8690795898442	177.2122802734376	201.8807983398439	796.228881835938	183.0813446044922	
2	0.005	-10.11476230621338	1354.700317382813	291.0811462402345	72.55876922607425	1257.521850585938	332.6308593750001	-6.905015945434574	1291.767211914063	152.6788787841797	-0.9232972860336308	1112.711791992188	61.97846603393558	4.2907772064209	1055.3125	278.7890625000001	117.6576614379883	885.7543945312505	104.3581924438477	55.97698974609378	921.691772460938	301.5018005371095	-29.42812347412111	918.4314575195317	298.7316284179689	-105.2297973632813	884.8054809570317	95.66767883300784	10.9364595413208	955.5141601562505	288.6614685058595	35.3192710876465	898.6630859375005	314.2534484863282	-15.56731891632081	896.9555053710942	310.5665588378907	164.7561950683594	598.381042480469	211.2550354003907	153.8976745605469	519.6011962890627	203.7439575195314	158.8385772705079	571.080017089844	169.3962554931641	143.8642578125001	453.046325683594	209.0433197021486	32.21621704101564	446.4826660156252	193.7261962890626	161.4700012207032	299.3297729492189	226.661102294922	167.1248779296876	263.1731262207032	276.4039916992189	163.2104034423829	222.8311157226564	246.4023742675782	152.9062652587891	59.39487457275393	300.193817138672	79.10188293457034	76.75595855712893	267.324432373047	103.1805038452149	27.93275833129884	333.8809814453126	200.285614013672	14.01523780822755	199.6380615234376	155.1380157470704	30.38422012329103	151.4572906494141	-167.8619842529297	622.6527099609377	187.0445556640626	-158.9974212646485	570.6486816406252	217.3699951171876	-164.9209747314454	597.535095214844	143.4880981445313	-148.9279022216797	444.9749145507815	190.3930816650391	-46.5420608520508	437.7673339843752	178.4031524658204	-183.9543609619141	299.8414001464845	267.2358398437501	-184.2768096923829	220.0652770996095	274.774139404297	-183.6045837402344	246.7899017333986	233.2908630371095	-186.3964538574219	72.59013366699222	252.9125518798829	-106.0475006103516	75.06985473632815	238.9975738525392	-148.5904998779297	35.54942703247072	304.0795288085939	-177.0249328613282	29.5894012451172	111.4692306518555	-223.6700286865236	18.06611633300782	162.1343688964844	-194.4954528808595	788.8563842773442	177.2276611328126	201.8911895751954	796.2316284179692	183.0994873046876	
3	0.01	-10.11117458343506	1354.705200195313	291.1030273437501	72.54936218261722	1257.50341796875	332.6661376953126	-6.89910459518433	1291.77490234375	152.7018280029297	-0.9452814459800725	1112.731567382813	61.97062301635745	4.305355548858644	1055.314208984375	278.8068237304689	117.6771850585938	885.7822265625005	104.3527374267579	55.98172760009768	921.7002563476567	301.5162353515626	-29.42733383178712	918.4353027343755	298.744354248047	-105.2244720458985	884.8085937500005	95.68058776855472	10.82188796997071	954.3342895507817	288.7083740234376	35.31063079833986	898.6189575195317	314.2726135253907	-15.57835674285889	896.9671020507817	310.5973510742189	164.7573699951172	598.3770751953127	211.2569885253907	153.8964843750001	519.6058349609377	203.7487335205079	158.8346252441407	571.072937011719	169.3990478515626	143.8613739013672	453.0508117675784	209.0444488525392	32.22826766967775	446.4920959472659	193.7329711914064	161.4399719238282	299.3350219726564	226.6933135986329	167.1321868896485	263.1770019531251	276.391326904297	163.2255249023438	222.8575134277345	246.3654937744142	152.9083862304688	59.39066696166995	300.1956787109376	79.09953308105472	76.76042938232425	267.3299255371095	103.1650314331055	27.9286460876465	333.8834838867189	200.2845916748048	14.02060508728028	199.6256866455079	155.143783569336	30.38223838806154	151.4603271484376	-167.8775787353516	622.6485595703127	187.0684051513672	-158.9865417480469	570.6481933593752	217.3686828613282	-164.9082489013672	597.5317382812502	143.4794311523438	-148.9242858886719	444.9782409667971	190.3919525146485	-46.54566192626955	437.7702636718752	178.4040222167969	-184.388656616211	299.7755737304689	267.4924926757814	-184.2764739990235	220.0634155273439	274.7799682617189	-183.6033325195313	246.7900848388673	233.290496826172	-186.3904418945313	72.58352661132815	252.9104614257814	-106.0459289550782	75.07975769042972	238.9935302734376	-148.592269897461	35.52990341186525	304.0724182128907	-177.0277404785157	29.58994102478029	111.4718399047852	-223.6640167236329	18.06729316711426	162.1343841552735	-194.4929504394532	788.8565063476567	177.225570678711	201.8919372558595	796.240844726563	183.0853271484376	
4	0.015	-10.11216640472412	1354.683715820313	291.1186828613282	72.57082366943362	1257.516235351563	332.6716308593751	-6.895437240600589	1291.782958984375	152.7130432128907	-0.9431863427162175	1112.763549804688	61.95343780517581	4.291055679321291	1055.313720703125	278.8423461914064	117.6833267211915	885.7586059570317	104.3775253295899	55.99597549438479	921.6854858398442	301.5346679687501	-29.4264259338379	918.422973632813	298.7622680664064	-105.2243652343751	884.7977905273442	95.69019317626956	11.03135013580323	955.6201782226567	288.629852294922	35.30897521972658	898.6330566406255	314.297088623047	-15.57483863830567	896.9596557617192	310.6267089843751	164.7627563476563	598.3764648437502	211.2595672607423	153.8979797363282	519.5954589843752	203.7586975097657	158.8248596191407	571.0812988281252	169.3988189697266	143.8634490966797	453.052185058594	209.0326538085939	32.23375320434572	446.4927673339846	193.7309570312501	161.4765167236329	299.3755798339845	226.6284179687501	167.1269226074219	263.1602172851564	276.4129943847657	163.2708129882813	222.8272399902345	246.3867187500001	152.9071807861329	59.39395904541018	300.1945800781251	79.10856628417972	76.76557159423831	267.326141357422	103.1662673950196	27.93834877014162	333.8837890625001	200.2909088134767	14.01954936981202	199.6314086914064	155.1385650634766	30.37965202331544	151.4586944580079	-167.8652038574219	622.6475219726565	187.0777282714844	-159.0052490234376	570.6564941406252	217.3729705810548	-164.9002685546876	597.5357666015627	143.4802551269532	-148.9107055664063	444.9760742187502	190.3928375244141	-46.53671646118165	437.7560729980471	178.4045867919922	-183.9650115966797	299.7239685058595	267.2861328125001	-184.2736053466797	220.0616455078126	274.7705383300782	-183.6009063720704	246.7883911132814	233.2962036132814	-186.3906402587891	72.57954406738284	252.9174041748048	-106.0531387329102	75.04509735107425	239.0155029296876	-148.5870056152344	35.53334808349611	304.0733642578126	-177.030990600586	29.58517837524415	111.4712066650391	-223.6581878662111	18.06082344055176	162.1296386718751	-194.4904937744142	788.852661132813	177.2376098632813	201.8945312500001	796.2368164062505	183.0971221923829	
